<svg width="73" height="57" viewBox="0 0 73 57" fill="none" xmlns="http://www.w3.org/2000/svg">
<path d="M48 8.33331V36.3333H8V8.33331H48ZM8 0.333313C3.5875 0.333313 0 3.92081 0 8.33331V36.3333C0 40.7458 3.5875 44.3333 8 44.3333H22.6625L21.325 48.3333H12C9.7875 48.3333 8 50.1208 8 52.3333C8 54.5458 9.7875 56.3333 12 56.3333H44C46.2125 56.3333 48 54.5458 48 52.3333C48 50.1208 46.2125 48.3333 44 48.3333H34.6625L33.325 44.3333H48C52.4125 44.3333 56 40.7458 56 36.3333V8.33331C56 3.92081 52.4125 0.333313 48 0.333313H8ZM66 0.333313C62.6875 0.333313 60 3.02081 60 6.33331V50.3333C60 53.6458 62.6875 56.3333 66 56.3333H74C77.3125 56.3333 80 53.6458 80 50.3333V6.33331C80 3.02081 77.3125 0.333313 74 0.333313H66ZM68 8.33331H72C73.1 8.33331 74 9.23331 74 10.3333C74 11.4333 73.1 12.3333 72 12.3333H68C66.9 12.3333 66 11.4333 66 10.3333C66 9.23331 66.9 8.33331 68 8.33331ZM66 18.3333C66 17.2333 66.9 16.3333 68 16.3333H72C73.1 16.3333 74 17.2333 74 18.3333C74 19.4333 73.1 20.3333 72 20.3333H68C66.9 20.3333 66 19.4333 66 18.3333ZM70 38.3333C71.0609 38.3333 72.0783 38.7547 72.8284 39.5049C73.5786 40.255 74 41.2724 74 42.3333C74 43.3942 73.5786 44.4116 72.8284 45.1617C72.0783 45.9119 71.0609 46.3333 70 46.3333C68.9391 46.3333 67.9217 45.9119 67.1716 45.1617C66.4214 44.4116 66 43.3942 66 42.3333C66 41.2724 66.4214 40.255 67.1716 39.5049C67.9217 38.7547 68.9391 38.3333 70 38.3333Z" fill="black"/>
</svg>
