<svg width="68" height="72" viewBox="0 0 68 72" fill="none" xmlns="http://www.w3.org/2000/svg">
<path d="M48.9166 11.45C50.6 11.3667 52.1233 11.15 53.42 10.89L59.1933 17.49C57.8933 20.2233 57.1533 22.83 56.8766 25.4133C56.4633 29.27 57.1733 32.5567 57.6933 34.9567L57.7166 35.0667C58.2566 37.5467 58.6133 39.18 58.56 41.0967C58.51 42.9 58.07 45.2833 56.37 48.6867C52.7033 56.0233 44.0533 57.5733 37.32 60.9367C36.2333 61.4833 35.1133 62.1033 34 62.8333C32.9305 62.1381 31.822 61.5048 30.68 60.9367C23.9466 57.57 15.3 56.0233 11.63 48.6867C9.92996 45.2867 9.48996 42.9 9.43996 41.0967C9.38663 39.18 9.73996 37.5467 10.2833 35.0633L10.3066 34.9567C10.8266 32.5567 11.5366 29.27 11.1233 25.4133C10.808 22.6596 10.0245 19.9799 8.80663 17.49L14.58 10.89C15.8766 11.15 17.4 11.3667 19.0833 11.45C23.3 11.66 28.6733 11.0333 34 8.06C39.3266 11.0333 44.7 11.66 48.9166 11.45ZM64.29 33.9133C63.2133 28.9833 62.2033 24.36 67.3333 16.6667L55.6666 3.33333C55.6666 3.33333 44 8.33333 34 0C24 8.33333 12.3333 3.33333 12.3333 3.33333L0.666626 16.6667C5.79663 24.36 4.78663 28.9833 3.70996 33.9133C2.68996 38.5933 1.60996 43.5467 5.66663 51.6667C10.9233 62.18 21.36 63.3667 28.81 67.4833C30.81 68.59 32.59 69.9033 34 71.6667C35.41 69.9033 37.1933 68.59 39.1933 67.4833C46.64 63.3667 57.0766 62.18 62.3333 51.6667C66.3933 43.55 65.31 38.5933 64.29 33.9133ZM41.9233 37.5767L43.7966 48.4833L33.9966 43.3333L24.2033 48.4833L26.0733 37.5733L18.15 29.85L29.1 28.2567L34 18.3333L38.9 28.2567L49.85 29.85L41.9233 37.5767Z" fill="black"/>
</svg>
